<?xml version="1.0" encoding="utf-8"?>
<!-- Generator: Adobe Illustrator 21.0.2, SVG Export Plug-In . SVG Version: 6.00 Build 0)  -->
<svg version="1.1" id="Laag_1" xmlns="http://www.w3.org/2000/svg" xmlns:xlink="http://www.w3.org/1999/xlink" x="0px" y="0px"
	 viewBox="0 0 395.4 117.6" style="enable-background:new 0 0 395.4 117.6;" xml:space="preserve">
<style type="text/css">
	.st0{enable-background:new    ;}
	.st1{fill:#74C9BD;}
	.st2{fill:#FFFFFF;}
</style>
<title>logoo</title>
<g class="st0">
	<path class="st1" d="M23.1,77.2c0-0.9,0.2-1.6,0.7-2.1c0.5-0.6,1.2-0.9,2.1-0.9h2.9c0.3,0,0.6,0.1,0.8,0.3c0.2,0.2,0.3,0.5,0.3,0.8
		v22c0,2.7-0.9,4.8-2.6,6.4c-1.7,1.5-4.1,2.3-7.1,2.3c-1.5,0-2.8-0.2-4-0.6s-2.2-1-3.1-1.7c-0.9-0.8-1.5-1.7-2-2.7s-0.7-2.3-0.7-3.6
		V42.3c0-2.7,0.8-4.8,2.6-6.4c1.7-1.5,4.1-2.3,7.1-2.3c1.4,0,2.8,0.2,4,0.6c1.2,0.4,2.2,1,3.1,1.7c0.9,0.8,1.5,1.7,2,2.7
		c0.5,1.1,0.7,2.3,0.7,3.6v22.6c0,0.3-0.1,0.6-0.3,0.8c-0.2,0.2-0.4,0.3-0.8,0.3H26c-1,0-1.7-0.3-2.2-0.8c-0.5-0.6-0.7-1.3-0.7-2.1
		V42.3c0-0.9-0.2-1.6-0.7-2.2c-0.5-0.6-1.2-0.8-2.2-0.8s-1.7,0.3-2.2,0.8c-0.5,0.6-0.7,1.3-0.7,2.2v54.9c0,0.9,0.2,1.6,0.7,2.2
		s1.2,0.8,2.2,0.8s1.7-0.3,2.2-0.8c0.5-0.6,0.7-1.3,0.7-2.2C23.1,97.2,23.1,77.2,23.1,77.2z"/>
	<path class="st1" d="M55.1,53.4c0-2.7,0.8-4.8,2.6-6.4c1.7-1.5,4.1-2.3,7.1-2.3c1.4,0,2.8,0.2,4,0.6c1.2,0.4,2.2,1,3.1,1.7
		s1.5,1.7,2,2.7c0.5,1.1,0.7,2.3,0.7,3.6v43.8c0,2.7-0.9,4.8-2.6,6.4c-1.7,1.5-4.1,2.3-7.1,2.3c-1.5,0-2.8-0.2-4-0.6s-2.2-1-3.1-1.7
		c-0.9-0.8-1.5-1.7-2-2.7s-0.7-2.3-0.7-3.6C55.1,97.2,55.1,53.4,55.1,53.4z M67.7,53.4c0-0.9-0.2-1.6-0.7-2.2
		c-0.5-0.6-1.2-0.8-2.2-0.8s-1.7,0.3-2.2,0.8c-0.5,0.6-0.7,1.3-0.7,2.2v43.8c0,0.9,0.2,1.6,0.7,2.2s1.2,0.8,2.2,0.8s1.7-0.3,2.2-0.8
		c0.5-0.6,0.7-1.3,0.7-2.2V53.4z"/>
	<path class="st1" d="M117.2,55.9c0.2-2.3,0.5-4.2,0.9-5.5c0.3-1.4,0.7-2.4,1.1-3.1c0.4-0.7,0.8-1.2,1.3-1.4s0.9-0.3,1.4-0.3h3.8
		c0.3,0,0.6,0.1,0.8,0.3c0.2,0.2,0.3,0.5,0.3,0.8v57.5c0,0.3-0.1,0.6-0.3,0.8c-0.2,0.2-0.4,0.3-0.8,0.3h-2.8c-1,0-1.7-0.3-2.2-0.8
		s-0.7-1.3-0.7-2.1l1.5-38.4l-4.7,38.8c-0.1,0.7-0.5,1.3-1.2,1.8s-1.5,0.7-2.3,0.7h-0.1c-0.8,0-1.6-0.2-2.3-0.7
		c-0.7-0.5-1.1-1.1-1.2-1.8L105,63.9l1.5,38.5c0,0.9-0.2,1.6-0.7,2.1s-1.2,0.8-2.2,0.8h-2.8c-0.3,0-0.6-0.1-0.8-0.3
		c-0.2-0.2-0.3-0.5-0.3-0.8V46.6c0-0.3,0.1-0.6,0.3-0.8c0.2-0.2,0.4-0.3,0.8-0.3h3.4c0.5,0,0.9,0.1,1.4,0.3s0.9,0.6,1.3,1.3
		s0.8,1.7,1.1,3.1c0.3,1.4,0.6,3.2,0.9,5.6l4.4,31.6L117.2,55.9z"/>
	<path class="st1" d="M161.8,45.6c1.4,0,2.8,0.2,4,0.6c1.2,0.4,2.2,1,3.1,1.7c0.9,0.8,1.5,1.7,2,2.7c0.5,1.1,0.7,2.3,0.7,3.6v21.3
		c0,2.7-0.9,4.8-2.6,6.4c-1.7,1.5-4.1,2.3-7.1,2.3h-3v18c0,0.9-0.2,1.6-0.7,2.1c-0.5,0.6-1.2,0.8-2.2,0.8h-2.8
		c-0.3,0-0.6-0.1-0.8-0.3c-0.2-0.2-0.3-0.5-0.3-0.8V46.6c0-0.3,0.1-0.6,0.3-0.8s0.4-0.3,0.8-0.3L161.8,45.6L161.8,45.6z M158.8,51.2
		v27.3h2.9c1,0,1.8-0.3,2.2-0.9c0.5-0.6,0.7-1.3,0.7-2.2V54.2c0-0.9-0.2-1.6-0.7-2.2s-1.2-0.9-2.2-0.9h-2.9V51.2z"/>
	<path class="st1" d="M207.6,45.6c0.3,0,0.5,0.1,0.7,0.3s0.3,0.4,0.3,0.7l5.6,57.3c0,0.3-0.1,0.6-0.3,0.9s-0.6,0.4-1,0.4h-2.5
		c-0.8,0-1.5-0.2-2.1-0.7s-0.9-1.1-0.9-1.8l-0.5-8.1h-4.2l-0.5,8.1c-0.1,0.7-0.4,1.3-0.9,1.8c-0.6,0.5-1.3,0.7-2.1,0.7h-2.5
		c-0.5,0-0.8-0.1-1-0.4s-0.3-0.6-0.3-0.9l5.6-57.3c0-0.3,0.1-0.5,0.3-0.7s0.4-0.3,0.7-0.3C202,45.6,207.6,45.6,207.6,45.6z
		 M203,88.8h3.5l-1.8-28.7L203,88.8z"/>
	<path class="st1" d="M256.5,77.7c0.3,0,0.6,0.1,0.8,0.3c0.2,0.2,0.3,0.5,0.3,0.8v18.5c0,2.7-0.8,4.8-2.5,6.4
		c-1.7,1.5-4.1,2.3-7.1,2.3c-1.5,0-2.8-0.2-4-0.6s-2.2-1-3.1-1.7c-0.9-0.8-1.5-1.7-2-2.7s-0.7-2.3-0.7-3.6v-44
		c0-2.7,0.8-4.8,2.5-6.4c1.7-1.5,4.1-2.3,7.1-2.3c1.4,0,2.8,0.2,4,0.6c1.2,0.4,2.2,1,3.1,1.7c0.9,0.8,1.5,1.7,2,2.7
		c0.5,1.1,0.7,2.3,0.7,3.6v19.1c0,0.3-0.1,0.6-0.3,0.8c-0.2,0.2-0.4,0.3-0.8,0.3h-2.8c-1,0-1.7-0.3-2.2-0.8
		c-0.5-0.6-0.7-1.3-0.7-2.1V53.4c0-0.9-0.2-1.6-0.7-2.2c-0.5-0.6-1.2-0.8-2.2-0.8s-1.7,0.3-2.2,0.8c-0.5,0.6-0.7,1.3-0.7,2.2v43.8
		c0,0.9,0.2,1.6,0.7,2.2s1.2,0.8,2.2,0.8s1.7-0.3,2.2-0.8c0.5-0.6,0.7-1.3,0.7-2.2V83.4c-2,0-3-1-3-2.9v-1.7c0-0.3,0.1-0.6,0.3-0.8
		c0.2-0.2,0.5-0.3,0.8-0.3C248.9,77.7,256.5,77.7,256.5,77.7z"/>
	<path class="st1" d="M301.1,45.6c0.3,0,0.6,0.1,0.8,0.3c0.2,0.2,0.3,0.5,0.3,0.8v57.5c0,0.3-0.1,0.6-0.3,0.8
		c-0.2,0.2-0.4,0.3-0.8,0.3h-2.8c-0.9,0-1.5-0.2-2-0.6s-0.8-1-0.9-1.7c0-0.4-0.1-1.2-0.4-2.4s-0.6-2.7-1-4.4
		c-0.4-1.7-0.8-3.6-1.3-5.6s-0.9-4.1-1.4-6.2s-0.9-4.2-1.3-6.3c-0.4-2.1-0.8-3.9-1-5.6l0.5,29.8c0,0.9-0.2,1.6-0.7,2.1
		c-0.5,0.6-1.2,0.8-2.2,0.8h-2.8c-0.3,0-0.6-0.1-0.8-0.3c-0.2-0.2-0.3-0.5-0.3-0.8V46.6c0-0.3,0.1-0.6,0.3-0.8
		c0.2-0.2,0.4-0.3,0.8-0.3h2.8c0.8,0,1.5,0.2,2,0.7s0.8,1.1,0.9,1.8c0.1,0.5,0.2,1.5,0.5,2.9c0.2,1.4,0.5,3,0.9,4.9s0.8,3.9,1.2,6.2
		s0.9,4.4,1.3,6.6c0.5,2.2,0.9,4.3,1.3,6.3s0.8,3.7,1.1,5.2l-0.5-32c0-0.8,0.3-1.4,0.8-1.9s1.2-0.7,2.1-0.7L301.1,45.6L301.1,45.6z"
		/>
	<path class="st1" d="M327.4,48.1c0-0.8,0.3-1.4,0.8-1.9s1.2-0.7,2.1-0.7h2.8c0.3,0,0.6,0.1,0.8,0.3c0.2,0.2,0.3,0.5,0.3,0.8v56.7
		c0,0.5-0.2,0.9-0.5,1.3s-0.8,0.5-1.3,0.5h-3.1c-0.5,0-0.9-0.2-1.3-0.5s-0.5-0.8-0.5-1.3L327.4,48.1L327.4,48.1z"/>
	<path class="st1" d="M373.9,45.6c0.3,0,0.6,0.1,0.8,0.3c0.2,0.2,0.3,0.4,0.3,0.8v1.7c0,0.9-0.2,1.6-0.7,2.1s-1.1,0.8-1.9,0.8h-6.3
		v21.6h6.7c0.3,0,0.6,0.1,0.8,0.3s0.3,0.4,0.3,0.8v1.7c0,0.9-0.2,1.6-0.7,2.1s-1.1,0.8-1.9,0.8h-5.2v21h6.2c0.8,0,1.4,0.3,1.9,0.8
		s0.7,1.2,0.7,2.1v1.7c0,0.3-0.1,0.6-0.3,0.8c-0.2,0.2-0.5,0.3-0.8,0.3h-13.5c-0.3,0-0.6-0.1-0.8-0.3c-0.2-0.2-0.3-0.5-0.3-0.8V46.6
		c0-0.3,0.1-0.6,0.3-0.8c0.2-0.2,0.4-0.3,0.8-0.3L373.9,45.6L373.9,45.6z"/>
</g>
<g class="st0">
	<path class="st2" d="M33,64.8c0-0.9,0.2-1.6,0.7-2.1c0.5-0.6,1.2-0.9,2.1-0.9h2.9c0.3,0,0.6,0.1,0.8,0.3s0.3,0.5,0.3,0.8v22
		c0,2.7-0.9,4.8-2.6,6.4c-1.7,1.5-4.1,2.3-7.1,2.3c-1.5,0-2.8-0.2-4-0.6s-2.2-1-3.1-1.7c-0.9-0.8-1.5-1.7-2-2.7s-0.7-2.3-0.7-3.6
		V29.9c0-2.7,0.8-4.8,2.6-6.4c1.7-1.5,4.1-2.3,7.1-2.3c1.4,0,2.8,0.2,4,0.6s2.2,1,3.1,1.7c0.9,0.8,1.5,1.7,2,2.7
		c0.5,1.1,0.7,2.3,0.7,3.6v22.6c0,0.3-0.1,0.6-0.3,0.8s-0.4,0.3-0.8,0.3h-2.8c-1,0-1.7-0.3-2.2-0.8c-0.5-0.6-0.7-1.3-0.7-2.1V29.9
		c0-0.9-0.2-1.6-0.7-2.2s-1.2-0.8-2.2-0.8s-1.7,0.3-2.2,0.8c-0.5,0.6-0.7,1.3-0.7,2.2v54.9c0,0.9,0.2,1.6,0.7,2.2s1.2,0.8,2.2,0.8
		s1.7-0.3,2.2-0.8c0.5-0.6,0.7-1.3,0.7-2.2V64.8z"/>
	<path class="st2" d="M65,41c0-2.7,0.8-4.8,2.6-6.4c1.7-1.5,4.1-2.3,7.1-2.3c1.4,0,2.8,0.2,4,0.6c1.2,0.4,2.2,1,3.1,1.7
		s1.5,1.7,2,2.7c0.5,1.1,0.7,2.3,0.7,3.6v43.8c0,2.7-0.9,4.8-2.6,6.4c-1.7,1.5-4.1,2.3-7.1,2.3c-1.5,0-2.8-0.2-4-0.6s-2.2-1-3.1-1.7
		c-0.9-0.8-1.5-1.7-2-2.7S65,86.1,65,84.8V41z M77.6,41c0-0.9-0.2-1.6-0.7-2.2c-0.5-0.6-1.2-0.8-2.2-0.8s-1.7,0.3-2.2,0.8
		c-0.5,0.6-0.8,1.3-0.8,2.2v43.8c0,0.9,0.2,1.6,0.7,2.2s1.2,0.8,2.2,0.8s1.7-0.3,2.2-0.8c0.5-0.6,0.7-1.3,0.7-2.2V41H77.6z"/>
	<path class="st2" d="M127.1,43.5c0.2-2.3,0.5-4.2,0.9-5.5c0.3-1.4,0.7-2.4,1.1-3.1c0.4-0.7,0.8-1.2,1.3-1.4s0.9-0.3,1.4-0.3h3.8
		c0.3,0,0.6,0.1,0.8,0.3s0.3,0.5,0.3,0.8v57.5c0,0.3-0.1,0.6-0.3,0.8c-0.2,0.2-0.4,0.3-0.8,0.3h-2.8c-1,0-1.7-0.3-2.2-0.8
		s-0.7-1.3-0.7-2.1l1.5-38.4l-4.7,38.6c-0.1,0.7-0.5,1.3-1.2,1.8s-1.5,0.7-2.3,0.7h-0.1c-0.8,0-1.6-0.2-2.3-0.7
		c-0.7-0.5-1.1-1.1-1.2-1.8l-4.7-38.9l1.5,38.5c0,0.9-0.2,1.6-0.7,2.1s-1.2,0.8-2.2,0.8h-2.8c-0.3,0-0.6-0.1-0.8-0.3
		c-0.2-0.2-0.3-0.5-0.3-0.8V34.2c0-0.3,0.1-0.6,0.3-0.8c0.2-0.2,0.4-0.3,0.8-0.3h3.4c0.5,0,0.9,0.1,1.4,0.3s0.9,0.6,1.3,1.3
		s0.8,1.7,1.1,3.1c0.3,1.4,0.6,3.2,0.9,5.6l4.4,31.6L127.1,43.5z"/>
	<path class="st2" d="M171.6,33.1c1.4,0,2.8,0.2,4,0.6c1.2,0.4,2.2,1,3.1,1.7c0.9,0.8,1.5,1.7,2,2.7c0.5,1.1,0.7,2.3,0.7,3.6V63
		c0,2.7-0.9,4.8-2.6,6.4c-1.7,1.5-4.1,2.3-7.1,2.3h-3v18c0,0.9-0.2,1.6-0.7,2.1c-0.5,0.6-1.2,0.8-2.2,0.8H163
		c-0.3,0-0.6-0.1-0.8-0.3c-0.2-0.2-0.3-0.5-0.3-0.8V34.2c0-0.3,0.1-0.6,0.3-0.8s0.4-0.3,0.8-0.3C163,33.1,171.6,33.1,171.6,33.1z
		 M168.8,38.8v27.3h2.9c1,0,1.8-0.3,2.2-0.9c0.5-0.6,0.7-1.3,0.7-2.2V41.8c0-0.9-0.2-1.6-0.7-2.2s-1.2-0.9-2.2-0.9h-2.9V38.8z"/>
	<path class="st2" d="M217.5,33.1c0.3,0,0.5,0.1,0.7,0.3s0.3,0.4,0.3,0.7l5.6,57.3c0,0.3-0.1,0.6-0.3,0.9s-0.6,0.4-1,0.4h-2.5
		c-0.8,0-1.5-0.2-2.1-0.7s-0.9-1.1-0.9-1.8l-0.5-8.1h-4.2l-0.5,8.1c-0.1,0.7-0.4,1.3-0.9,1.8c-0.6,0.5-1.3,0.7-2.1,0.7h-2.5
		c-0.5,0-0.8-0.1-1-0.4s-0.3-0.6-0.3-0.9l5.6-57.3c0-0.3,0.1-0.5,0.3-0.7s0.4-0.3,0.7-0.3C211.9,33.1,217.5,33.1,217.5,33.1z
		 M212.9,76.4h3.5l-1.8-28.7L212.9,76.4z"/>
	<path class="st2" d="M266.4,65.3c0.3,0,0.6,0.1,0.8,0.3c0.2,0.2,0.3,0.5,0.3,0.8v18.5c0,2.7-0.8,4.8-2.5,6.4
		c-1.7,1.5-4.1,2.3-7.1,2.3c-1.5,0-2.8-0.2-4-0.6s-2.2-1-3.1-1.7c-0.9-0.8-1.5-1.7-2-2.7s-0.7-2.3-0.7-3.6V41c0-2.7,0.8-4.8,2.5-6.4
		c1.7-1.5,4.1-2.3,7.1-2.3c1.4,0,2.8,0.2,4,0.6c1.2,0.4,2.2,1,3.1,1.7c0.9,0.8,1.5,1.7,2,2.7c0.5,1.1,0.7,2.3,0.7,3.6V60
		c0,0.3-0.1,0.6-0.3,0.8c-0.2,0.2-0.4,0.3-0.8,0.3h-2.8c-1,0-1.7-0.3-2.2-0.8c-0.5-0.6-0.7-1.3-0.7-2.1V41c0-0.9-0.2-1.6-0.7-2.2
		c-0.5-0.6-1.2-0.8-2.2-0.8s-1.7,0.3-2.2,0.8c-0.5,0.6-0.7,1.3-0.7,2.2v43.8c0,0.9,0.2,1.6,0.7,2.2c0.5,0.6,1.2,0.8,2.2,0.8
		s1.7-0.3,2.2-0.8c0.5-0.6,0.7-1.3,0.7-2.2V71c-2,0-3-1-3-2.9v-1.7c0-0.3,0.1-0.6,0.3-0.8c0.2-0.2,0.5-0.3,0.8-0.3
		C258.9,65.3,266.4,65.3,266.4,65.3z"/>
	<path class="st2" d="M311,33.1c0.3,0,0.6,0.1,0.8,0.3c0.2,0.2,0.3,0.5,0.3,0.8v57.5c0,0.3-0.1,0.6-0.3,0.8
		c-0.2,0.2-0.4,0.3-0.8,0.3h-2.8c-0.9,0-1.5-0.2-2-0.6s-0.8-1-0.9-1.7c0-0.4-0.1-1.2-0.4-2.4s-0.6-2.7-1-4.4
		c-0.4-1.7-0.8-3.6-1.3-5.6s-0.9-4.1-1.4-6.2s-0.9-4.2-1.3-6.3c-0.4-2.1-0.8-3.9-1-5.6l0.5,29.8c0,0.9-0.2,1.6-0.7,2.1
		c-0.5,0.6-1.2,0.8-2.2,0.8h-2.8c-0.3,0-0.6-0.1-0.8-0.3c-0.2-0.2-0.3-0.5-0.3-0.8V34.2c0-0.3,0.1-0.6,0.3-0.8
		c0.2-0.2,0.4-0.3,0.8-0.3h2.8c0.8,0,1.5,0.2,2,0.7s0.8,1.1,0.9,1.8c0.1,0.5,0.2,1.5,0.5,2.9c0.2,1.4,0.5,3,0.9,4.9s0.8,3.9,1.2,6.2
		s0.9,4.4,1.3,6.6c0.5,2.2,0.9,4.3,1.3,6.3c0.4,2,0.8,3.7,1.1,5.2l-0.5-32c0-0.8,0.3-1.4,0.8-1.9s1.2-0.7,2.1-0.7
		C308.1,33.1,311,33.1,311,33.1z"/>
	<path class="st2" d="M337.4,35.7c0-0.8,0.3-1.4,0.8-1.9s1.2-0.7,2.1-0.7h2.8c0.3,0,0.6,0.1,0.8,0.3c0.2,0.2,0.3,0.5,0.3,0.8v56.7
		c0,0.5-0.2,0.9-0.5,1.3s-0.8,0.5-1.3,0.5h-3.1c-0.5,0-0.9-0.2-1.3-0.5s-0.5-0.8-0.5-1.3L337.4,35.7L337.4,35.7z"/>
	<path class="st2" d="M383.9,33.1c0.3,0,0.6,0.1,0.8,0.3c0.2,0.2,0.3,0.4,0.3,0.8v1.7c0,0.9-0.2,1.6-0.7,2.1s-1.1,0.8-1.9,0.8h-6.2
		v21.7h6.7c0.3,0,0.6,0.1,0.8,0.3s0.3,0.4,0.3,0.8v1.7c0,0.9-0.2,1.6-0.7,2.1s-1.1,0.8-1.9,0.8h-5.2v21h6.2c0.8,0,1.4,0.3,1.9,0.8
		s0.7,1.2,0.7,2.1v1.7c0,0.3-0.1,0.6-0.3,0.8c-0.2,0.2-0.5,0.3-0.8,0.3h-13.5c-0.3,0-0.6-0.1-0.8-0.3c-0.2-0.2-0.3-0.5-0.3-0.8V34.2
		c0-0.3,0.1-0.6,0.3-0.8c0.2-0.2,0.4-0.3,0.8-0.3C370.4,33.1,383.9,33.1,383.9,33.1z"/>
</g>
</svg>
