<?xml version="1.0" encoding="utf-8"?>
<!-- Generator: Adobe Illustrator 21.0.2, SVG Export Plug-In . SVG Version: 6.00 Build 0)  -->
<svg version="1.1" id="Laag_1" xmlns="http://www.w3.org/2000/svg" xmlns:xlink="http://www.w3.org/1999/xlink" x="0px" y="0px"
	 viewBox="0 0 395.4 117.6" style="enable-background:new 0 0 395.4 117.6;" xml:space="preserve">
<style type="text/css">
	.st0{enable-background:new    ;}
	.st1{fill:#FFFFFF;}
	.st2{fill:#FF7900;}
</style>
<title>logoo</title>
<g class="st0">
	<path class="st1" d="M315,5.7h-2.2V5.4h4.2v0.3h-1.9L307,26.9h-0.7l-2-19.7L297,26.9h-0.7l-2.2-21.2h-1.9V5.4h4.9v0.3h-1.9l2,19.4
		l7.6-19.7h0.7l2,19.7L315,5.7z"/>
	<path class="st1" d="M315.9,26.2h1.9l2.9-20.6h-1.9V5.4h4.9v0.3h-1.9l-2.9,20.6h1.9v0.3h-4.9V26.2z"/>
	<path class="st1" d="M322.8,28.8c1.5-0.3,3.2-1.9,3.7-5.2L329,5.7h-1.9V5.4h4.9v0.3h-1.9l-2.5,17.9c-0.5,3-2.9,5.2-5.1,5.4
		L322.8,28.8z"/>
	<path class="st1" d="M352.6,5.7l-13.8,20.6h9.4l1.7-5.2h0.3l-0.8,5.4h-12v-0.3l13.8-20.6h-9.1l-1.7,5.2h-0.3l0.8-5.4h11.6v0.3
		H352.6z"/>
	<path class="st1" d="M353,26.2h1.9l2.9-20.6h-1.9V5.4h4.9v0.3h-1.9L356,26.2h1.9v0.3H353V26.2z"/>
	<path class="st1" d="M359.9,28.8c1.5-0.3,3.2-1.9,3.7-5.2l2.5-17.9h-1.7V5.4h4.9v0.3h-1.9l-2.5,17.9c-0.5,3-2.9,5.2-5.1,5.4v-0.2
		H359.9z"/>
	<path class="st1" d="M374.3,5.7h-1.9V5.4h2.7l7.4,19L385,5.7h-1.9V5.4h3.9v0.3h-1.9l-3,21.2h-0.3l-7.4-20l-2.7,19.4h1.9v0.3h-3.9
		v-0.3h1.9L374.3,5.7z"/>
</g>
<g class="st0">
	<path class="st2" d="M22,83.4c0-0.9,0.2-1.6,0.7-2.1c0.5-0.6,1.2-0.9,2.1-0.9h2.9c0.3,0,0.6,0.1,0.8,0.3c0.2,0.2,0.3,0.5,0.3,0.8
		v22c0,2.7-0.9,4.8-2.6,6.4c-1.7,1.5-4.1,2.3-7.1,2.3c-1.5,0-2.8-0.2-4-0.6s-2.2-1-3.1-1.7c-0.9-0.8-1.5-1.7-2-2.7s-0.7-2.3-0.7-3.6
		V48.5c0-2.7,0.8-4.8,2.6-6.4c1.7-1.5,4.1-2.3,7.1-2.3c1.4,0,2.8,0.2,4,0.6c1.2,0.4,2.2,1,3.1,1.7c0.9,0.8,1.5,1.7,2,2.7
		c0.5,1.1,0.7,2.3,0.7,3.6V71c0,0.3-0.1,0.6-0.3,0.8c-0.2,0.2-0.4,0.3-0.8,0.3h-2.8c-1,0-1.7-0.3-2.2-0.8C22.2,70.7,22,70,22,69.2
		V48.5c0-0.9-0.2-1.6-0.7-2.2c-0.5-0.6-1.2-0.8-2.2-0.8s-1.7,0.3-2.2,0.8c-0.5,0.6-0.7,1.3-0.7,2.2v54.9c0,0.9,0.2,1.6,0.7,2.2
		s1.2,0.8,2.2,0.8s1.7-0.3,2.2-0.8c0.5-0.6,0.7-1.3,0.7-2.2V83.4z"/>
	<path class="st2" d="M54,59.6c0-2.7,0.8-4.8,2.6-6.4c1.7-1.5,4.1-2.3,7.1-2.3c1.4,0,2.8,0.2,4,0.6c1.2,0.4,2.2,1,3.1,1.7
		s1.5,1.7,2,2.7c0.5,1.1,0.7,2.3,0.7,3.6v43.8c0,2.7-0.9,4.8-2.6,6.4c-1.7,1.5-4.1,2.3-7.1,2.3c-1.5,0-2.8-0.2-4-0.6s-2.2-1-3.1-1.7
		c-0.9-0.8-1.5-1.7-2-2.7s-0.7-2.3-0.7-3.6C54,103.4,54,59.6,54,59.6z M66.6,59.6c0-0.9-0.2-1.6-0.7-2.2c-0.5-0.6-1.2-0.8-2.2-0.8
		c-1,0-1.7,0.3-2.2,0.8c-0.5,0.6-0.7,1.3-0.7,2.2v43.8c0,0.9,0.2,1.6,0.7,2.2s1.2,0.8,2.2,0.8c1,0,1.7-0.3,2.2-0.8
		c0.5-0.6,0.7-1.3,0.7-2.2V59.6z"/>
	<path class="st2" d="M116.1,62.1c0.2-2.3,0.5-4.2,0.9-5.5c0.3-1.4,0.7-2.4,1.1-3.1c0.4-0.7,0.8-1.2,1.3-1.4s0.9-0.3,1.4-0.3h3.8
		c0.3,0,0.6,0.1,0.8,0.3c0.2,0.2,0.3,0.5,0.3,0.8v57.5c0,0.3-0.1,0.6-0.3,0.8c-0.2,0.2-0.4,0.3-0.8,0.3h-2.8c-1,0-1.7-0.3-2.2-0.8
		s-0.7-1.3-0.7-2.1l1.5-38.4l-4.7,38.8c-0.1,0.7-0.5,1.3-1.2,1.8s-1.5,0.7-2.3,0.7h-0.1c-0.8,0-1.6-0.2-2.3-0.7
		c-0.7-0.5-1.1-1.1-1.2-1.8l-4.7-38.9l1.5,38.5c0,0.9-0.2,1.6-0.7,2.1s-1.2,0.8-2.2,0.8h-2.8c-0.3,0-0.6-0.1-0.8-0.3
		c-0.2-0.2-0.3-0.5-0.3-0.8V52.8c0-0.3,0.1-0.6,0.3-0.8c0.2-0.2,0.4-0.3,0.8-0.3h3.4c0.5,0,0.9,0.1,1.4,0.3s0.9,0.6,1.3,1.3
		s0.8,1.7,1.1,3.1c0.3,1.4,0.6,3.2,0.9,5.6l4.4,31.6L116.1,62.1z"/>
	<path class="st2" d="M160.6,51.8c1.4,0,2.8,0.2,4,0.6c1.2,0.4,2.2,1,3.1,1.7c0.9,0.8,1.5,1.7,2,2.7c0.5,1.1,0.7,2.3,0.7,3.6v21.3
		c0,2.7-0.9,4.8-2.6,6.4c-1.7,1.5-4.1,2.3-7.1,2.3h-3v18c0,0.9-0.2,1.6-0.7,2.1c-0.5,0.6-1.2,0.8-2.2,0.8H152
		c-0.3,0-0.6-0.1-0.8-0.3c-0.2-0.2-0.3-0.5-0.3-0.8V52.8c0-0.3,0.1-0.6,0.3-0.8s0.4-0.3,0.8-0.3L160.6,51.8L160.6,51.8z M157.7,57.4
		v27.3h2.9c1,0,1.8-0.3,2.2-0.9c0.5-0.6,0.7-1.3,0.7-2.2V60.4c0-0.9-0.2-1.6-0.7-2.2s-1.2-0.9-2.2-0.9h-2.9V57.4z"/>
	<path class="st2" d="M206.5,51.8c0.3,0,0.5,0.1,0.7,0.3s0.3,0.4,0.3,0.7l5.6,57.3c0,0.3-0.1,0.6-0.3,0.9s-0.6,0.4-1,0.4h-2.5
		c-0.8,0-1.5-0.2-2.1-0.7s-0.9-1.1-0.9-1.8l-0.5-8.1h-4.2l-0.5,8.1c-0.1,0.7-0.4,1.3-0.9,1.8c-0.6,0.5-1.3,0.7-2.1,0.7h-2.5
		c-0.5,0-0.8-0.1-1-0.4s-0.3-0.6-0.3-0.9l5.6-57.3c0-0.3,0.1-0.5,0.3-0.7s0.4-0.3,0.7-0.3H206.5z M201.9,95h3.5l-1.8-28.7L201.9,95z
		"/>
	<path class="st2" d="M255.4,83.9c0.3,0,0.6,0.1,0.8,0.3c0.2,0.2,0.3,0.5,0.3,0.8v18.5c0,2.7-0.8,4.8-2.5,6.4
		c-1.7,1.5-4.1,2.3-7.1,2.3c-1.5,0-2.8-0.2-4-0.6s-2.2-1-3.1-1.7c-0.9-0.8-1.5-1.7-2-2.7s-0.7-2.3-0.7-3.6v-44
		c0-2.7,0.8-4.8,2.5-6.4c1.7-1.5,4.1-2.3,7.1-2.3c1.4,0,2.8,0.2,4,0.6c1.2,0.4,2.2,1,3.1,1.7c0.9,0.8,1.5,1.7,2,2.7
		c0.5,1.1,0.7,2.3,0.7,3.6v19.1c0,0.3-0.1,0.6-0.3,0.8c-0.2,0.2-0.4,0.3-0.8,0.3h-2.8c-1,0-1.7-0.3-2.2-0.8
		c-0.5-0.6-0.7-1.3-0.7-2.1V59.6c0-0.9-0.2-1.6-0.7-2.2c-0.5-0.6-1.2-0.8-2.2-0.8s-1.7,0.3-2.2,0.8c-0.5,0.6-0.7,1.3-0.7,2.2v43.8
		c0,0.9,0.2,1.6,0.7,2.2s1.2,0.8,2.2,0.8s1.7-0.3,2.2-0.8c0.5-0.6,0.7-1.3,0.7-2.2V89.6c-2,0-3-1-3-2.9V85c0-0.3,0.1-0.6,0.3-0.8
		c0.2-0.2,0.5-0.3,0.8-0.3C247.8,83.9,255.4,83.9,255.4,83.9z"/>
	<path class="st2" d="M300,51.8c0.3,0,0.6,0.1,0.8,0.3c0.2,0.2,0.3,0.5,0.3,0.8v57.5c0,0.3-0.1,0.6-0.3,0.8
		c-0.2,0.2-0.4,0.3-0.8,0.3h-2.8c-0.9,0-1.5-0.2-2-0.6s-0.8-1-0.9-1.7c0-0.4-0.1-1.2-0.4-2.4s-0.6-2.7-1-4.4
		c-0.4-1.7-0.8-3.6-1.3-5.6s-0.9-4.1-1.4-6.2s-0.9-4.2-1.3-6.3c-0.4-2.1-0.8-3.9-1-5.6l0.5,29.8c0,0.9-0.2,1.6-0.7,2.1
		c-0.5,0.6-1.2,0.8-2.2,0.8h-2.8c-0.3,0-0.6-0.1-0.8-0.3c-0.2-0.2-0.3-0.5-0.3-0.8V52.8c0-0.3,0.1-0.6,0.3-0.8
		c0.2-0.2,0.4-0.3,0.8-0.3h2.8c0.8,0,1.5,0.2,2,0.7s0.8,1.1,0.9,1.8c0.1,0.5,0.2,1.5,0.5,2.9c0.2,1.4,0.5,3,0.9,4.9s0.8,3.9,1.2,6.2
		s0.9,4.4,1.3,6.6c0.5,2.2,0.9,4.3,1.3,6.3s0.8,3.7,1.1,5.2l-0.5-32c0-0.8,0.3-1.4,0.8-1.9s1.2-0.7,2.1-0.7L300,51.8L300,51.8z"/>
	<path class="st2" d="M326.3,54.3c0-0.8,0.3-1.4,0.8-1.9s1.2-0.7,2.1-0.7h2.8c0.3,0,0.6,0.1,0.8,0.3c0.2,0.2,0.3,0.5,0.3,0.8v56.7
		c0,0.5-0.2,0.9-0.5,1.3s-0.8,0.5-1.3,0.5h-3.1c-0.5,0-0.9-0.2-1.3-0.5s-0.5-0.8-0.5-1.3L326.3,54.3L326.3,54.3z"/>
	<path class="st2" d="M372.8,51.8c0.3,0,0.6,0.1,0.8,0.3c0.2,0.2,0.3,0.4,0.3,0.8v1.7c0,0.9-0.2,1.6-0.7,2.1s-1.1,0.8-1.9,0.8H365
		v21.6h6.7c0.3,0,0.6,0.1,0.8,0.3s0.3,0.4,0.3,0.8v1.7c0,0.9-0.2,1.6-0.7,2.1s-1.1,0.8-1.9,0.8H365v21h6.2c0.8,0,1.4,0.3,1.9,0.8
		s0.7,1.2,0.7,2.1v1.7c0,0.3-0.1,0.6-0.3,0.8c-0.2,0.2-0.5,0.3-0.8,0.3h-13.5c-0.3,0-0.6-0.1-0.8-0.3c-0.2-0.2-0.3-0.5-0.3-0.8V52.8
		c0-0.3,0.1-0.6,0.3-0.8c0.2-0.2,0.4-0.3,0.8-0.3L372.8,51.8L372.8,51.8z"/>
</g>
<g class="st0">
	<path class="st1" d="M31.9,71c0-0.9,0.2-1.6,0.7-2.1c0.5-0.6,1.2-0.9,2.1-0.9h2.9c0.3,0,0.6,0.1,0.8,0.3c0.2,0.2,0.3,0.5,0.3,0.8
		v22c0,2.7-0.9,4.8-2.6,6.4C34.4,99,32,99.8,29,99.8c-1.5,0-2.8-0.2-4-0.6s-2.2-1-3.1-1.7c-0.9-0.8-1.5-1.7-2-2.7s-0.7-2.3-0.7-3.6
		V36.1c0-2.7,0.8-4.8,2.6-6.4c1.7-1.5,4.1-2.3,7.1-2.3c1.4,0,2.8,0.2,4,0.6c1.2,0.4,2.2,1,3.1,1.7c0.9,0.8,1.5,1.7,2,2.7
		c0.5,1.1,0.7,2.3,0.7,3.6v22.6c0,0.3-0.1,0.6-0.3,0.8s-0.4,0.3-0.8,0.3h-2.8c-1,0-1.7-0.3-2.2-0.8c-0.5-0.6-0.7-1.3-0.7-2.1V36.1
		c0-0.9-0.2-1.6-0.7-2.2S30,33.1,29,33.1s-1.7,0.3-2.2,0.8c-0.5,0.6-0.7,1.3-0.7,2.2V91c0,0.9,0.2,1.6,0.7,2.2S28,94,29,94
		s1.7-0.3,2.2-0.8c0.5-0.6,0.7-1.3,0.7-2.2C31.9,91,31.9,71,31.9,71z"/>
	<path class="st1" d="M63.9,47.2c0-2.7,0.8-4.8,2.6-6.4c1.7-1.5,4.1-2.3,7.1-2.3c1.4,0,2.8,0.2,4,0.6c1.2,0.4,2.2,1,3.1,1.7
		s1.5,1.7,2,2.7c0.5,1.1,0.7,2.3,0.7,3.6v43.8c0,2.7-0.9,4.8-2.6,6.4c-1.7,1.5-4.1,2.3-7.1,2.3c-1.5,0-2.8-0.2-4-0.6s-2.2-1-3.1-1.7
		c-0.9-0.8-1.5-1.7-2-2.7s-0.7-2.3-0.7-3.6C63.9,91,63.9,47.2,63.9,47.2z M76.5,47.2c0-0.9-0.2-1.6-0.7-2.2
		c-0.5-0.6-1.2-0.8-2.2-0.8s-1.7,0.3-2.2,0.8c-0.5,0.6-0.8,1.3-0.8,2.2V91c0,0.9,0.2,1.6,0.7,2.2s1.2,0.8,2.2,0.8s1.7-0.3,2.2-0.8
		c0.5-0.6,0.7-1.3,0.7-2.2V47.2H76.5z"/>
	<path class="st1" d="M126,49.7c0.2-2.3,0.5-4.2,0.9-5.5c0.3-1.4,0.7-2.4,1.1-3.1c0.4-0.7,0.8-1.2,1.3-1.4s0.9-0.3,1.4-0.3h3.8
		c0.3,0,0.6,0.1,0.8,0.3s0.3,0.5,0.3,0.8V98c0,0.3-0.1,0.6-0.3,0.8c-0.2,0.2-0.4,0.3-0.8,0.3h-2.8c-1,0-1.7-0.3-2.2-0.8
		s-0.7-1.3-0.7-2.1l1.5-38.4l-4.7,38.6c-0.1,0.7-0.5,1.3-1.2,1.8s-1.5,0.7-2.3,0.7H122c-0.8,0-1.6-0.2-2.3-0.7
		c-0.7-0.5-1.1-1.1-1.2-1.8l-4.7-38.9l1.5,38.5c0,0.9-0.2,1.6-0.7,2.1s-1.2,0.8-2.2,0.8h-2.8c-0.3,0-0.6-0.1-0.8-0.3
		c-0.2-0.2-0.3-0.5-0.3-0.8V40.4c0-0.3,0.1-0.6,0.3-0.8c0.2-0.2,0.4-0.3,0.8-0.3h3.4c0.5,0,0.9,0.1,1.4,0.3s0.9,0.6,1.3,1.3
		s0.8,1.7,1.1,3.1c0.3,1.4,0.6,3.2,0.9,5.6l4.4,31.6L126,49.7z"/>
	<path class="st1" d="M170.5,39.3c1.4,0,2.8,0.2,4,0.6c1.2,0.4,2.2,1,3.1,1.7c0.9,0.8,1.5,1.7,2,2.7c0.5,1.1,0.7,2.3,0.7,3.6v21.3
		c0,2.7-0.9,4.8-2.6,6.4c-1.7,1.5-4.1,2.3-7.1,2.3h-3v18c0,0.9-0.2,1.6-0.7,2.1c-0.5,0.6-1.2,0.8-2.2,0.8h-2.8
		c-0.3,0-0.6-0.1-0.8-0.3c-0.2-0.2-0.3-0.5-0.3-0.8V40.4c0-0.3,0.1-0.6,0.3-0.8s0.4-0.3,0.8-0.3C161.9,39.3,170.5,39.3,170.5,39.3z
		 M167.6,45v27.3h2.9c1,0,1.8-0.3,2.2-0.9c0.5-0.6,0.7-1.3,0.7-2.2V48c0-0.9-0.2-1.6-0.7-2.2s-1.2-0.9-2.2-0.9h-2.9V45z"/>
	<path class="st1" d="M216.4,39.3c0.3,0,0.5,0.1,0.7,0.3s0.3,0.4,0.3,0.7l5.6,57.3c0,0.3-0.1,0.6-0.3,0.9s-0.6,0.4-1,0.4h-2.5
		c-0.8,0-1.5-0.2-2.1-0.7s-0.9-1.1-0.9-1.8l-0.5-8.1h-4.2l-0.5,8.1c-0.1,0.7-0.4,1.3-0.9,1.8c-0.6,0.5-1.3,0.7-2.1,0.7h-2.5
		c-0.5,0-0.8-0.1-1-0.4s-0.3-0.6-0.3-0.9l5.6-57.3c0-0.3,0.1-0.5,0.3-0.7s0.4-0.3,0.7-0.3H216.4z M211.8,82.6h3.5l-1.8-28.7
		L211.8,82.6z"/>
	<path class="st1" d="M265.3,71.5c0.3,0,0.6,0.1,0.8,0.3c0.2,0.2,0.3,0.5,0.3,0.8v18.5c0,2.7-0.8,4.8-2.5,6.4
		c-1.7,1.5-4.1,2.3-7.1,2.3c-1.5,0-2.8-0.2-4-0.6s-2.2-1-3.1-1.7c-0.9-0.8-1.5-1.7-2-2.7s-0.7-2.3-0.7-3.6v-44
		c0-2.7,0.8-4.8,2.5-6.4c1.7-1.5,4.1-2.3,7.1-2.3c1.4,0,2.8,0.2,4,0.6c1.2,0.4,2.2,1,3.1,1.7c0.9,0.8,1.5,1.7,2,2.7
		c0.5,1.1,0.7,2.3,0.7,3.6v19.1c0,0.3-0.1,0.6-0.3,0.8c-0.2,0.2-0.4,0.3-0.8,0.3h-2.8c-1,0-1.7-0.3-2.2-0.8
		c-0.5-0.6-0.7-1.3-0.7-2.1V47.2c0-0.9-0.2-1.6-0.7-2.2c-0.5-0.6-1.2-0.8-2.2-0.8s-1.7,0.3-2.2,0.8c-0.5,0.6-0.7,1.3-0.7,2.2V91
		c0,0.9,0.2,1.6,0.7,2.2s1.2,0.8,2.2,0.8s1.7-0.3,2.2-0.8c0.5-0.6,0.7-1.3,0.7-2.2V77.2c-2,0-3-1-3-2.9v-1.7c0-0.3,0.1-0.6,0.3-0.8
		c0.2-0.2,0.5-0.3,0.8-0.3C257.7,71.5,265.3,71.5,265.3,71.5z"/>
	<path class="st1" d="M309.9,39.3c0.3,0,0.6,0.1,0.8,0.3c0.2,0.2,0.3,0.5,0.3,0.8v57.5c0,0.3-0.1,0.6-0.3,0.8
		c-0.2,0.2-0.4,0.3-0.8,0.3h-2.8c-0.9,0-1.5-0.2-2-0.6s-0.8-1-0.9-1.7c0-0.4-0.1-1.2-0.4-2.4s-0.6-2.7-1-4.4
		c-0.4-1.7-0.8-3.6-1.3-5.6s-0.9-4.1-1.4-6.2s-0.9-4.2-1.3-6.3c-0.4-2.1-0.8-3.9-1-5.6l0.5,29.8c0,0.9-0.2,1.6-0.7,2.1
		c-0.5,0.6-1.2,0.8-2.2,0.8h-2.8c-0.3,0-0.6-0.1-0.8-0.3c-0.2-0.2-0.3-0.5-0.3-0.8V40.4c0-0.3,0.1-0.6,0.3-0.8
		c0.2-0.2,0.4-0.3,0.8-0.3h2.8c0.8,0,1.5,0.2,2,0.7s0.8,1.1,0.9,1.8c0.1,0.5,0.2,1.5,0.5,2.9c0.2,1.4,0.5,3,0.9,4.9s0.8,3.9,1.2,6.2
		s0.9,4.4,1.3,6.6c0.5,2.2,0.9,4.3,1.3,6.3s0.8,3.7,1.1,5.2l-0.5-32c0-0.8,0.3-1.4,0.8-1.9s1.2-0.7,2.1-0.7H309.9z"/>
	<path class="st1" d="M336.2,41.9c0-0.8,0.3-1.4,0.8-1.9s1.2-0.7,2.1-0.7h2.8c0.3,0,0.6,0.1,0.8,0.3c0.2,0.2,0.3,0.5,0.3,0.8v56.7
		c0,0.5-0.2,0.9-0.5,1.3s-0.8,0.5-1.3,0.5h-3.1c-0.5,0-0.9-0.2-1.3-0.5s-0.5-0.8-0.5-1.3L336.2,41.9L336.2,41.9z"/>
	<path class="st1" d="M382.7,39.3c0.3,0,0.6,0.1,0.8,0.3c0.2,0.2,0.3,0.4,0.3,0.8v1.7c0,0.9-0.2,1.6-0.7,2.1S382,45,381.2,45H375
		v21.7h6.7c0.3,0,0.6,0.1,0.8,0.3s0.3,0.4,0.3,0.8v1.7c0,0.9-0.2,1.6-0.7,2.1s-1.1,0.8-1.9,0.8H375v21h6.2c0.8,0,1.4,0.3,1.9,0.8
		s0.7,1.2,0.7,2.1V98c0,0.3-0.1,0.6-0.3,0.8c-0.2,0.2-0.5,0.3-0.8,0.3h-13.5c-0.3,0-0.6-0.1-0.8-0.3c-0.2-0.2-0.3-0.5-0.3-0.8V40.4
		c0-0.3,0.1-0.6,0.3-0.8c0.2-0.2,0.4-0.3,0.8-0.3C369.2,39.3,382.7,39.3,382.7,39.3z"/>
</g>
</svg>
